<svg width="39" height="35" viewBox="0 0 39 35" fill="none" xmlns="http://www.w3.org/2000/svg">
<path fill-rule="evenodd" clip-rule="evenodd" d="M9.02148 14.2095L20.9755 7.12261L12.1175 2.04651C10.7214 1.24649 8.98288 2.25778 8.98808 3.86678L9.02148 14.2095Z" fill="#E66C79" fill-opacity="0.6"/>
<path fill-rule="evenodd" clip-rule="evenodd" d="M9.02582 15.6841L13.1393 13.2454L20.0056 24.8271L12.2053 29.3643C10.8144 30.1733 9.06941 29.1733 9.06421 27.5643L9.02582 15.6841Z" fill="#5B7EF6" fill-opacity="0.6"/>
<path fill-rule="evenodd" clip-rule="evenodd" d="M32.6776 13.8287C34.0737 14.6287 34.0802 16.6399 32.6893 17.4489L23.6901 22.6835L16.8056 11.0712L22.2418 7.8484L32.6776 13.8287Z" fill="#7646FA" fill-opacity="0.6"/>
<path d="M27.3338 15.6486L13.2503 7.57805L13.3027 23.8101L27.3338 15.6486Z" fill="url(#paint0_linear_4_297)"/>
<path fill-rule="evenodd" clip-rule="evenodd" d="M8.99542 5.13719L13.252 7.58137L13.3044 23.8086L9.04786 21.3738L8.99542 5.13719Z" fill="#E66C79"/>
<path fill-rule="evenodd" clip-rule="evenodd" d="M5.53639 18.5688C5.53777 18.9965 5.76122 19.3926 6.12645 19.615L9.05648 21.3991L9.00396 5.14278L5.48649 3.12291L5.53639 18.5688Z" fill="url(#paint1_linear_4_297)"/>
<path fill-rule="evenodd" clip-rule="evenodd" d="M31.5921 13.1998L17.4872 5.11697L13.2504 7.58591L27.3309 15.6547L31.5762 13.1941L31.5891 13.2014L31.5921 13.1998Z" fill="#7646FA"/>
<path fill-rule="evenodd" clip-rule="evenodd" d="M21.6895 3.48804C21.3185 3.27545 20.8636 3.27087 20.4885 3.47598L17.4784 5.12142L31.5855 13.2056L35.1063 11.1765L21.6895 3.48804Z" fill="url(#paint2_linear_4_297)"/>
<path fill-rule="evenodd" clip-rule="evenodd" d="M13.3477 32.7632L13.329 28.7124L27.4375 20.506L27.3574 23.9355C27.3474 24.363 27.1161 24.7546 26.7465 24.9696L13.3477 32.7632Z" fill="url(#paint3_linear_4_297)"/>
<path fill-rule="evenodd" clip-rule="evenodd" d="M13.3262 28.7148L27.3539 20.5554L27.3342 15.6518L13.3061 23.8114L13.3076 24.686L13.3262 28.7148Z" fill="#5B7EF6"/>
<path fill-rule="evenodd" clip-rule="evenodd" d="M9.02148 14.2095L20.9755 7.12261L12.1175 2.04651C10.7214 1.24649 8.98288 2.25778 8.98808 3.86678L9.02148 14.2095Z" fill="#E66C79" fill-opacity="0.6"/>
<path fill-rule="evenodd" clip-rule="evenodd" d="M9.02582 15.6841L13.1393 13.2454L20.0056 24.8271L12.2053 29.3643C10.8144 30.1733 9.06941 29.1733 9.06421 27.5643L9.02582 15.6841Z" fill="#5B7EF6" fill-opacity="0.6"/>
<path fill-rule="evenodd" clip-rule="evenodd" d="M32.6776 13.8287C34.0737 14.6287 34.0802 16.6399 32.6893 17.4489L23.6901 22.6835L16.8056 11.0712L22.2418 7.8484L32.6776 13.8287Z" fill="#7646FA" fill-opacity="0.6"/>
<path d="M27.3338 15.6486L13.2503 7.57805L13.3027 23.8101L27.3338 15.6486Z" fill="url(#paint4_linear_4_297)"/>
<path fill-rule="evenodd" clip-rule="evenodd" d="M8.99542 5.13719L13.252 7.58137L13.3044 23.8086L9.04786 21.3738L8.99542 5.13719Z" fill="#E66C79"/>
<path fill-rule="evenodd" clip-rule="evenodd" d="M5.53639 18.5688C5.53777 18.9965 5.76122 19.3926 6.12645 19.615L9.05648 21.3991L9.00396 5.14278L5.48649 3.12291L5.53639 18.5688Z" fill="url(#paint5_linear_4_297)"/>
<path fill-rule="evenodd" clip-rule="evenodd" d="M31.5921 13.1998L17.4872 5.11697L13.2504 7.58591L27.3309 15.6547L31.5762 13.1941L31.5891 13.2014L31.5921 13.1998Z" fill="#7646FA"/>
<path fill-rule="evenodd" clip-rule="evenodd" d="M21.6895 3.48804C21.3185 3.27545 20.8636 3.27087 20.4885 3.47598L17.4784 5.12142L31.5855 13.2056L35.1063 11.1765L21.6895 3.48804Z" fill="url(#paint6_linear_4_297)"/>
<path fill-rule="evenodd" clip-rule="evenodd" d="M13.3477 32.7632L13.329 28.7124L27.4375 20.506L27.3574 23.9355C27.3474 24.363 27.1161 24.7546 26.7465 24.9696L13.3477 32.7632Z" fill="url(#paint7_linear_4_297)"/>
<path fill-rule="evenodd" clip-rule="evenodd" d="M13.3262 28.7148L27.3539 20.5554L27.3342 15.6518L13.3061 23.8114L13.3076 24.686L13.3262 28.7148Z" fill="#5B7EF6"/>
<defs>
<linearGradient id="paint0_linear_4_297" x1="-6.26749" y1="15.4158" x2="39.6229" y2="15.4159" gradientUnits="userSpaceOnUse">
<stop stop-color="white"/>
<stop offset="1" stop-color="white"/>
</linearGradient>
<linearGradient id="paint1_linear_4_297" x1="13.3615" y1="14.8377" x2="1.54208" y2="14.5475" gradientUnits="userSpaceOnUse">
<stop stop-color="#E36973"/>
<stop offset="1" stop-color="#E36D76" stop-opacity="0"/>
</linearGradient>
<linearGradient id="paint2_linear_4_297" x1="19.6349" y1="13.0058" x2="28.4366" y2="3.08696" gradientUnits="userSpaceOnUse">
<stop stop-color="#7749F4"/>
<stop offset="1" stop-color="#7246F9" stop-opacity="0"/>
</linearGradient>
<linearGradient id="paint3_linear_4_297" x1="18.6116" y1="19.7565" x2="24.1427" y2="33.4039" gradientUnits="userSpaceOnUse">
<stop stop-color="#5B7EF6"/>
<stop offset="1" stop-color="#577DFA" stop-opacity="0"/>
</linearGradient>
<linearGradient id="paint4_linear_4_297" x1="-6.26749" y1="15.4158" x2="39.6229" y2="15.4159" gradientUnits="userSpaceOnUse">
<stop stop-color="white"/>
<stop offset="1" stop-color="white"/>
</linearGradient>
<linearGradient id="paint5_linear_4_297" x1="13.3615" y1="14.8377" x2="1.54208" y2="14.5475" gradientUnits="userSpaceOnUse">
<stop stop-color="#E36973"/>
<stop offset="1" stop-color="#E36D76" stop-opacity="0"/>
</linearGradient>
<linearGradient id="paint6_linear_4_297" x1="19.6349" y1="13.0058" x2="28.4366" y2="3.08696" gradientUnits="userSpaceOnUse">
<stop stop-color="#7749F4"/>
<stop offset="1" stop-color="#7246F9" stop-opacity="0"/>
</linearGradient>
<linearGradient id="paint7_linear_4_297" x1="18.6116" y1="19.7565" x2="24.1427" y2="33.4039" gradientUnits="userSpaceOnUse">
<stop stop-color="#5B7EF6"/>
<stop offset="1" stop-color="#577DFA" stop-opacity="0"/>
</linearGradient>
</defs>
</svg>
