<svg width="334" height="83" viewBox="0 0 334 83" fill="none" xmlns="http://www.w3.org/2000/svg">
<path fill-rule="evenodd" clip-rule="evenodd" d="M21.6406 34.2197L46.5174 19.4716L28.0835 8.90801C25.1783 7.24313 21.5603 9.34769 21.5711 12.6961L21.6406 34.2197Z" fill="#E66C79" fill-opacity="0.6"/>
<path fill-rule="evenodd" clip-rule="evenodd" d="M21.6484 37.2884L30.2088 32.2133L44.498 56.3155L28.265 65.7576C25.3706 67.4412 21.7391 65.3601 21.7283 62.0117L21.6484 37.2884Z" fill="#5B7EF6" fill-opacity="0.6"/>
<path fill-rule="evenodd" clip-rule="evenodd" d="M70.8704 33.4276C73.7757 35.0924 73.7892 39.2779 70.8947 40.9614L52.1669 51.8549L37.8401 27.6891L49.153 20.9823L70.8704 33.4276Z" fill="#7646FA" fill-opacity="0.6"/>
<path d="M59.75 37.2139L30.4417 20.4187L30.5508 54.1982L59.75 37.2139Z" fill="url(#paint0_linear_4_303)"/>
<path fill-rule="evenodd" clip-rule="evenodd" d="M21.5853 15.34L30.4434 20.4265L30.5525 54.196L21.6945 49.1291L21.5853 15.34Z" fill="#E66C79"/>
<path fill-rule="evenodd" clip-rule="evenodd" d="M14.3874 43.2918C14.3903 44.1818 14.8553 45.0062 15.6153 45.469L21.7129 49.1818L21.6036 15.3516L14.2835 11.1482L14.3874 43.2918Z" fill="url(#paint1_linear_4_303)"/>
<path fill-rule="evenodd" clip-rule="evenodd" d="M68.6113 32.1187L39.2584 15.2979L30.4413 20.4358L59.7435 37.2273L68.5782 32.1067L68.6052 32.122L68.6113 32.1187Z" fill="#7646FA"/>
<path fill-rule="evenodd" clip-rule="evenodd" d="M48.0027 11.9081C47.2306 11.4657 46.284 11.4562 45.5033 11.8831L39.2391 15.3073L68.5968 32.1308L75.9237 27.9082L48.0027 11.9081Z" fill="url(#paint2_linear_4_303)"/>
<path fill-rule="evenodd" clip-rule="evenodd" d="M30.6406 72.8301L30.6018 64.4001L59.9622 47.3222L59.7956 54.4592C59.7749 55.3488 59.2934 56.1638 58.5242 56.6112L30.6406 72.8301Z" fill="url(#paint3_linear_4_303)"/>
<path fill-rule="evenodd" clip-rule="evenodd" d="M30.5996 64.4053L59.7919 47.4251L59.751 37.2204L30.5579 54.201L30.561 56.0211L30.5996 64.4053Z" fill="#5B7EF6"/>
<path fill-rule="evenodd" clip-rule="evenodd" d="M21.6406 34.2197L46.5174 19.4716L28.0835 8.90801C25.1783 7.24313 21.5603 9.34769 21.5711 12.6961L21.6406 34.2197Z" fill="#E66C79" fill-opacity="0.6"/>
<path fill-rule="evenodd" clip-rule="evenodd" d="M21.6484 37.2884L30.2088 32.2133L44.498 56.3155L28.265 65.7576C25.3706 67.4412 21.7391 65.3601 21.7283 62.0117L21.6484 37.2884Z" fill="#5B7EF6" fill-opacity="0.6"/>
<path fill-rule="evenodd" clip-rule="evenodd" d="M70.8704 33.4276C73.7757 35.0924 73.7892 39.2779 70.8947 40.9614L52.1669 51.8549L37.8401 27.6891L49.153 20.9823L70.8704 33.4276Z" fill="#7646FA" fill-opacity="0.6"/>
<path d="M59.75 37.2139L30.4417 20.4187L30.5508 54.1982L59.75 37.2139Z" fill="url(#paint4_linear_4_303)"/>
<path fill-rule="evenodd" clip-rule="evenodd" d="M21.5853 15.34L30.4434 20.4265L30.5525 54.196L21.6945 49.1291L21.5853 15.34Z" fill="#E66C79"/>
<path fill-rule="evenodd" clip-rule="evenodd" d="M14.3874 43.2918C14.3903 44.1818 14.8553 45.0062 15.6153 45.469L21.7129 49.1818L21.6036 15.3516L14.2835 11.1482L14.3874 43.2918Z" fill="url(#paint5_linear_4_303)"/>
<path fill-rule="evenodd" clip-rule="evenodd" d="M68.6113 32.1187L39.2584 15.2979L30.4413 20.4358L59.7435 37.2273L68.5782 32.1067L68.6052 32.122L68.6113 32.1187Z" fill="#7646FA"/>
<path fill-rule="evenodd" clip-rule="evenodd" d="M48.0027 11.9081C47.2306 11.4657 46.284 11.4562 45.5033 11.8831L39.2391 15.3073L68.5968 32.1308L75.9237 27.9082L48.0027 11.9081Z" fill="url(#paint6_linear_4_303)"/>
<path fill-rule="evenodd" clip-rule="evenodd" d="M30.6406 72.8301L30.6018 64.4001L59.9622 47.3222L59.7956 54.4592C59.7749 55.3488 59.2934 56.1638 58.5242 56.6112L30.6406 72.8301Z" fill="url(#paint7_linear_4_303)"/>
<path fill-rule="evenodd" clip-rule="evenodd" d="M30.5996 64.4053L59.7919 47.4251L59.751 37.2204L30.5579 54.201L30.561 56.0211L30.5996 64.4053Z" fill="#5B7EF6"/>
<g clip-path="url(#clip0_4_303)">
<path d="M133.498 24.0436V30.5411H116.744V40.8336H129.583V47.2161H116.744V64.1786H108.684V24.0436H133.498ZM143.301 28.5286C141.881 28.5286 140.691 28.0878 139.732 27.2061C138.81 26.2861 138.35 25.1553 138.35 23.8136C138.35 22.472 138.81 21.3603 139.732 20.4786C140.691 19.5586 141.881 19.0986 143.301 19.0986C144.721 19.0986 145.892 19.5586 146.813 20.4786C147.773 21.3603 148.253 22.472 148.253 23.8136C148.253 25.1553 147.773 26.2861 146.813 27.2061C145.892 28.0878 144.721 28.5286 143.301 28.5286ZM147.274 32.3236V64.1786H139.214V32.3236H147.274ZM163.298 21.6286V64.1786H155.238V21.6286H163.298ZM180.646 38.9361V54.3461C180.646 55.4195 180.896 56.2053 181.395 56.7036C181.932 57.1636 182.815 57.3936 184.043 57.3936H187.785V64.1786H182.719C175.925 64.1786 172.528 60.882 172.528 54.2886V38.9361H168.728V32.3236H172.528V24.4461H180.646V32.3236H187.785V38.9361H180.646ZM223.234 47.5611C223.234 48.7111 223.156 49.7461 223.003 50.6661H199.686C199.877 52.9661 200.683 54.7678 202.104 56.0711C203.524 57.3745 205.27 58.0261 207.343 58.0261C210.337 58.0261 212.467 56.742 213.734 54.1736H222.428C221.506 57.2403 219.74 59.7703 217.131 61.7636C214.52 63.7186 211.316 64.6961 207.516 64.6961C204.445 64.6961 201.681 64.0253 199.225 62.6836C196.807 61.3036 194.907 59.3678 193.525 56.8761C192.181 54.3845 191.51 51.5095 191.51 48.2511C191.51 44.9545 192.181 42.0603 193.525 39.5686C194.869 37.077 196.75 35.1603 199.168 33.8186C201.586 32.477 204.368 31.8061 207.516 31.8061C210.548 31.8061 213.254 32.4578 215.634 33.7611C218.052 35.0645 219.913 36.9236 221.218 39.3386C222.562 41.7153 223.234 44.4561 223.234 47.5611ZM214.885 45.2611C214.847 43.1911 214.098 41.5428 212.64 40.3161C211.181 39.0511 209.396 38.4186 207.286 38.4186C205.289 38.4186 203.601 39.032 202.219 40.2586C200.875 41.447 200.05 43.1145 199.743 45.2611H214.885ZM237.177 37.2686C238.213 35.582 239.557 34.2595 241.207 33.3011C242.896 32.3428 244.815 31.8636 246.965 31.8636V40.3161H244.835C242.301 40.3161 240.382 40.9103 239.077 42.0986C237.81 43.287 237.177 45.357 237.177 48.3086V64.1786H229.117V32.3236H237.177V37.2686Z" fill="url(#paint8_linear_4_303)"/>
</g>
<defs>
<linearGradient id="paint0_linear_4_303" x1="-10.1758" y1="36.7295" x2="85.3242" y2="36.7295" gradientUnits="userSpaceOnUse">
<stop stop-color="white"/>
<stop offset="1" stop-color="white"/>
</linearGradient>
<linearGradient id="paint1_linear_4_303" x1="30.6719" y1="35.5272" x2="6.07504" y2="34.9233" gradientUnits="userSpaceOnUse">
<stop stop-color="#E36973"/>
<stop offset="1" stop-color="#E36D76" stop-opacity="0"/>
</linearGradient>
<linearGradient id="paint2_linear_4_303" x1="43.7268" y1="31.7151" x2="62.0438" y2="11.0735" gradientUnits="userSpaceOnUse">
<stop stop-color="#7749F4"/>
<stop offset="1" stop-color="#7246F9" stop-opacity="0"/>
</linearGradient>
<linearGradient id="paint3_linear_4_303" x1="41.5951" y1="45.7626" x2="53.1056" y2="74.1634" gradientUnits="userSpaceOnUse">
<stop stop-color="#5B7EF6"/>
<stop offset="1" stop-color="#577DFA" stop-opacity="0"/>
</linearGradient>
<linearGradient id="paint4_linear_4_303" x1="-10.1758" y1="36.7295" x2="85.3242" y2="36.7295" gradientUnits="userSpaceOnUse">
<stop stop-color="white"/>
<stop offset="1" stop-color="white"/>
</linearGradient>
<linearGradient id="paint5_linear_4_303" x1="30.6719" y1="35.5272" x2="6.07504" y2="34.9233" gradientUnits="userSpaceOnUse">
<stop stop-color="#E36973"/>
<stop offset="1" stop-color="#E36D76" stop-opacity="0"/>
</linearGradient>
<linearGradient id="paint6_linear_4_303" x1="43.7268" y1="31.7151" x2="62.0438" y2="11.0735" gradientUnits="userSpaceOnUse">
<stop stop-color="#7749F4"/>
<stop offset="1" stop-color="#7246F9" stop-opacity="0"/>
</linearGradient>
<linearGradient id="paint7_linear_4_303" x1="41.5951" y1="45.7626" x2="53.1056" y2="74.1634" gradientUnits="userSpaceOnUse">
<stop stop-color="#5B7EF6"/>
<stop offset="1" stop-color="#577DFA" stop-opacity="0"/>
</linearGradient>
<linearGradient id="paint8_linear_4_303" x1="104.711" y1="41.4513" x2="252.198" y2="44.3953" gradientUnits="userSpaceOnUse">
<stop offset="1" stop-color="#11142D"/>
</linearGradient>
<clipPath id="clip0_4_303">
<rect width="139" height="46" fill="white" transform="translate(108 19)"/>
</clipPath>
</defs>
</svg>
